<svg width="256" height="256" viewBox="0 0 256 256" fill="none" xmlns="http://www.w3.org/2000/svg">
<rect width="256" height="256" fill="white"/>
<path d="M40.9532 58.0299V110H29.8578V58.0299H40.9532ZM42.811 42.337C42.811 43.322 42.6046 44.2561 42.1917 45.1393C41.8133 46.0224 41.28 46.8037 40.5919 47.483C39.9038 48.1284 39.0953 48.6549 38.1664 49.0625C37.2719 49.4361 36.3086 49.623 35.2765 49.623C34.2788 49.623 33.3326 49.4361 32.4381 49.0625C31.578 48.6549 30.8211 48.1284 30.1675 47.483C29.5138 46.8037 28.9805 46.0224 28.5677 45.1393C28.1892 44.2561 28 43.322 28 42.337C28 41.3179 28.1892 40.3669 28.5677 39.4837C28.9805 38.6005 29.5138 37.8363 30.1675 37.1909C30.8211 36.5116 31.578 35.9851 32.4381 35.6114C33.3326 35.2038 34.2788 35 35.2765 35C36.3086 35 37.2719 35.2038 38.1664 35.6114C39.0953 35.9851 39.9038 36.5116 40.5919 37.1909C41.28 37.8363 41.8133 38.6005 42.1917 39.4837C42.6046 40.3669 42.811 41.3179 42.811 42.337Z" fill="black"/>
<path d="M58.4549 110V66.7425L53.2943 66.0292C52.4342 65.8594 51.7289 65.5537 51.1784 65.1121C50.6624 64.6705 50.4044 64.0421 50.4044 63.2269V58.7432H58.4549V54.3614C58.4549 51.4063 58.885 48.7568 59.7451 46.413C60.6396 44.0693 61.8953 42.0822 63.5123 40.4518C65.1637 38.8213 67.1592 37.5815 69.4987 36.7323C71.8381 35.8492 74.4701 35.4076 77.3944 35.4076C78.5986 35.4076 79.7339 35.4925 80.8004 35.6624C81.9014 35.8322 82.9679 36.087 84 36.4266L83.7936 41.9293C83.7248 42.8465 83.2603 43.39 82.4002 43.5598C81.5745 43.7296 80.5252 43.8145 79.2522 43.8145C77.704 43.8145 76.3107 44.0014 75.0721 44.375C73.8336 44.7147 72.7671 45.3091 71.8725 46.1583C71.0124 47.0075 70.3416 48.1284 69.8599 49.5211C69.4126 50.9137 69.189 52.6461 69.189 54.7181V58.7432H83.5872V66.6406H69.5503V110H58.4549Z" fill="black"/>
<path d="M150.546 182C143.555 181.944 137.523 180.908 132.449 178.892C127.431 176.933 123.569 173.965 120.863 169.99C118.213 166.015 116.888 161.031 116.888 155.04V129.34C116.888 125.365 116.099 122.174 114.52 119.766C112.942 117.302 110.602 115.511 107.501 114.391C104.4 113.271 100.567 112.711 96 112.711V101.121C100.567 101.065 104.4 100.505 107.501 99.4412C110.602 98.3214 112.942 96.5577 114.52 94.1501C116.099 91.7424 116.888 88.5509 116.888 84.5756V58.7077C116.888 52.7167 118.298 47.7615 121.117 43.8421C123.936 39.8667 127.854 36.8992 132.872 34.9395C137.946 32.9798 143.837 32 150.546 32V43.4222C146.374 43.5342 142.794 44.1781 139.806 45.3539C136.875 46.5297 134.619 48.3214 133.041 50.729C131.519 53.1366 130.757 56.2441 130.757 60.0515V85.3315C130.757 91.1545 129.263 95.8298 126.275 99.3572C123.287 102.885 118.692 105.208 112.491 106.328V107.336C118.805 108.4 123.428 110.695 126.36 114.223C129.292 117.75 130.757 122.454 130.757 128.333V154.116C130.757 157.924 131.519 161.003 133.041 163.355C134.563 165.763 136.79 167.526 139.722 168.646C142.71 169.766 146.318 170.354 150.546 170.41V182Z" fill="black"/>
<path d="M170.454 182V170.41C174.626 170.298 178.178 169.654 181.109 168.478C184.041 167.358 186.268 165.595 187.79 163.187C189.369 160.835 190.158 157.756 190.158 153.948V128.501C190.158 122.621 191.652 117.918 194.64 114.391C197.685 110.863 202.279 108.568 208.425 107.504V106.496C202.167 105.376 197.544 103.053 194.556 99.5252C191.624 95.9978 190.158 91.3225 190.158 85.4994V59.9675C190.158 56.1041 189.397 52.9686 187.875 50.561C186.352 48.1534 184.125 46.3897 181.194 45.2699C178.262 44.0941 174.682 43.4782 170.454 43.4222V32C177.445 32.056 183.449 33.0638 188.467 35.0235C193.484 36.9832 197.318 39.9507 199.968 43.9261C202.674 47.8455 204.027 52.8287 204.027 58.8757V84.4076C204.027 88.439 204.816 91.6864 206.395 94.1501C207.974 96.5577 210.313 98.3214 213.414 99.4412C216.571 100.561 220.433 101.121 225 101.121V112.711C220.433 112.711 216.571 113.271 213.414 114.391C210.313 115.511 207.974 117.274 206.395 119.682C204.816 122.09 204.027 125.253 204.027 129.172V155.208C204.027 161.143 202.618 166.099 199.799 170.074C196.98 174.049 193.061 177.017 188.044 178.976C183.026 180.992 177.163 182 170.454 182Z" fill="black"/>
<path d="M87.3635 123.391C96.7044 123.391 101.491 131.396 100.869 138.314L120.08 138.27C132.071 138.27 138.194 152.541 129.942 161.08L109.159 182.729L118.347 212C120.917 220.129 115.101 229.505 105.367 229.505H77.5541C74.4281 229.505 71.8219 228.521 69.7631 227.054L68.1311 231.648L68.092 231.752C63.6853 243.487 46.973 243.487 42.5663 231.752L42.5194 231.627L15.919 155.905L15.8264 155.589C13.6859 148.281 18.4359 138.27 28.8822 138.27H55.6174L57.6884 132.513C59.5963 127.064 64.7857 123.471 70.4996 123.455L70.5392 123.455L87.3635 123.391Z" fill="white"/>
<path d="M120.08 150.823L92.4539 150.887C92.0814 150.887 91.7089 151.141 91.5847 151.523L89.474 157.563C89.2877 158.199 89.7223 158.835 90.3431 158.835H101.083C101.89 158.835 102.325 159.852 101.766 160.425L84.6316 178.674H84.6936L93.5093 207.096C93.6955 207.732 93.261 208.305 92.6401 208.305H84.0107C83.5762 208.305 83.2658 208.05 83.1416 207.669L78.7338 193.108C78.4854 192.217 77.3059 192.217 76.9955 193.044L73.3947 203.281C73.3326 203.472 73.3326 203.663 73.3947 203.854L76.6851 216.253C76.8092 216.634 77.1817 216.952 77.5542 216.952H105.367C105.988 216.952 106.422 216.316 106.236 215.744L94.9993 179.945C94.8751 179.628 94.9993 179.246 95.2476 178.992L120.763 152.413C121.322 151.841 120.887 150.823 120.08 150.823Z" fill="black"/>
<path d="M87.3635 135.944L70.5393 136.008C70.1668 136.008 69.7943 136.262 69.6702 136.644L67.4973 142.684C67.249 143.32 67.7456 143.956 68.3664 143.956H75.4438C76.0646 143.956 76.4992 144.592 76.3129 145.228L56.2604 201.437C55.95 202.264 54.8326 202.264 54.5221 201.437L40.1191 160.87C39.8708 160.234 40.3674 159.598 40.9883 159.598H48.2519C48.6243 159.598 48.9968 159.852 49.121 160.234L54.3359 174.858C54.6463 175.685 55.7638 175.685 56.0742 174.858L64.1449 152.095C64.3932 151.459 63.8965 150.823 63.2757 150.823H28.8823C28.2614 150.823 27.8269 151.459 28.0131 152.095L54.4601 227.38C54.7705 228.207 55.8879 228.207 56.1984 227.38L88.2327 137.216C88.4189 136.58 87.9844 135.944 87.3635 135.944Z" fill="#D8141C"/>
</svg>
