<svg width="25" height="26" viewBox="0 0 25 26" fill="none" xmlns="http://www.w3.org/2000/svg">
<path d="M3.13 3.88V10H1.84V3.88H3.13ZM3.346 2.032C3.346 2.148 3.322 2.258 3.274 2.362C3.23 2.466 3.168 2.558 3.088 2.638C3.008 2.714 2.914 2.776 2.806 2.824C2.702 2.868 2.59 2.89 2.47 2.89C2.354 2.89 2.244 2.868 2.14 2.824C2.04 2.776 1.952 2.714 1.876 2.638C1.8 2.558 1.738 2.466 1.69 2.362C1.646 2.258 1.624 2.148 1.624 2.032C1.624 1.912 1.646 1.8 1.69 1.696C1.738 1.592 1.8 1.502 1.876 1.426C1.952 1.346 2.04 1.284 2.14 1.24C2.244 1.192 2.354 1.168 2.47 1.168C2.59 1.168 2.702 1.192 2.806 1.24C2.914 1.284 3.008 1.346 3.088 1.426C3.168 1.502 3.23 1.592 3.274 1.696C3.322 1.8 3.346 1.912 3.346 2.032ZM5.16484 10V4.906L4.56484 4.822C4.46484 4.802 4.38284 4.766 4.31884 4.714C4.25884 4.662 4.22884 4.588 4.22884 4.492V3.964H5.16484V3.448C5.16484 3.1 5.21484 2.788 5.31484 2.512C5.41884 2.236 5.56484 2.002 5.75284 1.81C5.94484 1.618 6.17684 1.472 6.44884 1.372C6.72084 1.268 7.02684 1.216 7.36684 1.216C7.50684 1.216 7.63884 1.226 7.76284 1.246C7.89084 1.266 8.01484 1.296 8.13484 1.336L8.11084 1.984C8.10284 2.092 8.04884 2.156 7.94884 2.176C7.85284 2.196 7.73084 2.206 7.58284 2.206C7.40284 2.206 7.24084 2.228 7.09684 2.272C6.95284 2.312 6.82884 2.382 6.72484 2.482C6.62484 2.582 6.54684 2.714 6.49084 2.878C6.43884 3.042 6.41284 3.246 6.41284 3.49V3.964H8.08684V4.894H6.45484V10H5.16484Z" fill="black"/>
<path d="M15.8555 18.1641C15.0482 18.1576 14.3516 18.0371 13.7656 17.8027C13.1862 17.5749 12.7402 17.2298 12.4277 16.7676C12.1217 16.3053 11.9688 15.7259 11.9688 15.0293V12.041C11.9688 11.5788 11.8776 11.2077 11.6953 10.9277C11.513 10.6413 11.2428 10.4329 10.8848 10.3027C10.5267 10.1725 10.084 10.1074 9.55664 10.1074V8.75977C10.084 8.75326 10.5267 8.68815 10.8848 8.56445C11.2428 8.43424 11.513 8.22917 11.6953 7.94922C11.8776 7.66927 11.9688 7.29818 11.9688 6.83594V3.82812C11.9688 3.13151 12.1315 2.55534 12.457 2.09961C12.7826 1.63737 13.235 1.29232 13.8145 1.06445C14.4004 0.836589 15.0807 0.722656 15.8555 0.722656V2.05078C15.3737 2.0638 14.9603 2.13867 14.6152 2.27539C14.2767 2.41211 14.0163 2.62044 13.834 2.90039C13.6582 3.18034 13.5703 3.54167 13.5703 3.98438V6.92383C13.5703 7.60091 13.3978 8.14453 13.0527 8.55469C12.7077 8.96484 12.1771 9.23503 11.4609 9.36523V9.48242C12.1901 9.60612 12.724 9.87305 13.0625 10.2832C13.401 10.6934 13.5703 11.2402 13.5703 11.9238V14.9219C13.5703 15.3646 13.6582 15.7227 13.834 15.9961C14.0098 16.276 14.2669 16.4811 14.6055 16.6113C14.9505 16.7415 15.3672 16.8099 15.8555 16.8164V18.1641ZM18.1543 18.1641V16.8164C18.6361 16.8034 19.0462 16.7285 19.3848 16.5918C19.7233 16.4616 19.9805 16.2565 20.1562 15.9766C20.3385 15.7031 20.4297 15.3451 20.4297 14.9023V11.9434C20.4297 11.2598 20.6022 10.7129 20.9473 10.3027C21.2988 9.89258 21.8294 9.62565 22.5391 9.50195V9.38477C21.8164 9.25456 21.2826 8.98438 20.9375 8.57422C20.599 8.16406 20.4297 7.62044 20.4297 6.94336V3.97461C20.4297 3.52539 20.3418 3.16081 20.166 2.88086C19.9902 2.60091 19.7331 2.39583 19.3945 2.26562C19.056 2.12891 18.6426 2.05729 18.1543 2.05078V0.722656C18.9616 0.729167 19.6549 0.846354 20.2344 1.07422C20.8138 1.30208 21.2565 1.64714 21.5625 2.10938C21.875 2.5651 22.0312 3.14453 22.0312 3.84766V6.81641C22.0312 7.28516 22.1224 7.66276 22.3047 7.94922C22.487 8.22917 22.7572 8.43424 23.1152 8.56445C23.4798 8.69466 23.9258 8.75977 24.4531 8.75977V10.1074C23.9258 10.1074 23.4798 10.1725 23.1152 10.3027C22.7572 10.4329 22.487 10.638 22.3047 10.918C22.1224 11.1979 22.0312 11.5658 22.0312 12.0215V15.0488C22.0312 15.7389 21.8685 16.3151 21.543 16.7773C21.2174 17.2396 20.765 17.5846 20.1855 17.8125C19.6061 18.0469 18.929 18.1641 18.1543 18.1641Z" fill="black"/>
<path d="M9.02166 11.5C10.126 11.5 10.6918 12.4565 10.6183 13.2832L12.8895 13.2779C14.3071 13.2779 15.0309 14.9832 14.0553 16.0035L11.5983 18.5904L12.6845 22.0882C12.9884 23.0594 12.3009 24.1799 11.1501 24.1799H7.86199C7.49242 24.1799 7.18431 24.0623 6.94092 23.887L6.74798 24.4359L6.74336 24.4483C6.22239 25.8506 4.24664 25.8506 3.72567 24.4483L3.72013 24.4334L0.575389 15.3852L0.564442 15.3474C0.311387 14.4742 0.872943 13.2779 2.10792 13.2779H5.2686L5.51343 12.59C5.73899 11.9389 6.35249 11.5096 7.02799 11.5076L7.03268 11.5076L9.02166 11.5Z" fill="white"/>
<path d="M12.8895 14.7778L9.62346 14.7854C9.57942 14.7854 9.53538 14.8158 9.5207 14.8614L9.27116 15.5832C9.24915 15.6592 9.30052 15.7352 9.37392 15.7352H10.6436C10.7391 15.7352 10.7904 15.8567 10.7244 15.9251L8.69869 18.1058H8.70603L9.74823 21.5021C9.77025 21.578 9.71887 21.6464 9.64548 21.6464H8.62529C8.57392 21.6464 8.53722 21.616 8.52254 21.5704L8.00144 19.8305C7.97208 19.7241 7.83264 19.7241 7.79594 19.8229L7.37025 21.0462C7.36291 21.069 7.36291 21.0918 7.37025 21.1146L7.75924 22.5962C7.77392 22.6418 7.81796 22.6797 7.86199 22.6797H11.1501C11.2235 22.6797 11.2748 22.6038 11.2528 22.5354L9.92437 18.2577C9.90969 18.2197 9.92437 18.1741 9.95373 18.1437L12.9702 14.9678C13.0363 14.8994 12.9849 14.7778 12.8895 14.7778Z" fill="black"/>
<path d="M9.02164 13L7.03265 13.0076C6.98862 13.0076 6.94458 13.038 6.9299 13.0836L6.67302 13.8054C6.64366 13.8814 6.70238 13.9573 6.77577 13.9573H7.61247C7.68586 13.9573 7.73724 14.0333 7.71522 14.1093L5.34458 20.8259C5.30789 20.9247 5.17578 20.9247 5.13908 20.8259L3.43633 15.9784C3.40697 15.9024 3.46569 15.8265 3.53908 15.8265H4.3978C4.44183 15.8265 4.48587 15.8568 4.50055 15.9024L5.11706 17.65C5.15376 17.7487 5.28587 17.7487 5.32257 17.65L6.27669 14.9299C6.30605 14.8539 6.24733 14.7779 6.17394 14.7779H2.10789C2.0345 14.7779 1.98312 14.8539 2.00514 14.9299L5.13174 23.9259C5.16844 24.0247 5.30055 24.0247 5.33724 23.9259L9.12439 13.152C9.14641 13.076 9.09503 13 9.02164 13Z" fill="#D8141C"/>
</svg>
