<?xml version="1.0" encoding="utf-8"?>
<!-- Generator: Adobe Illustrator 27.4.0, SVG Export Plug-In . SVG Version: 6.00 Build 0)  -->
<svg version="1.1" id="レイヤー_1" xmlns="http://www.w3.org/2000/svg" xmlns:xlink="http://www.w3.org/1999/xlink" x="0px"
	 y="0px" viewBox="0 0 25 26" style="enable-background:new 0 0 25 26;" xml:space="preserve">
<style type="text/css">
	.st0{fill:#FFFFFF;}
	.st1{fill:#D8141C;}
</style>
<path d="M3.1,3.9V10H1.8V3.9H3.1z M3.3,2c0,0.1,0,0.2-0.1,0.3c0,0.1-0.1,0.2-0.2,0.3C3,2.7,2.9,2.8,2.8,2.8c-0.1,0-0.2,0.1-0.3,0.1
	c-0.1,0-0.2,0-0.3-0.1C2,2.8,2,2.7,1.9,2.6C1.8,2.6,1.7,2.5,1.7,2.4c0-0.1-0.1-0.2-0.1-0.3c0-0.1,0-0.2,0.1-0.3
	c0-0.1,0.1-0.2,0.2-0.3C2,1.3,2,1.3,2.1,1.2c0.1,0,0.2-0.1,0.3-0.1c0.1,0,0.2,0,0.3,0.1c0.1,0,0.2,0.1,0.3,0.2
	c0.1,0.1,0.1,0.2,0.2,0.3C3.3,1.8,3.3,1.9,3.3,2z M5.2,10V4.9L4.6,4.8c-0.1,0-0.2-0.1-0.2-0.1C4.3,4.7,4.2,4.6,4.2,4.5V4h0.9V3.4
	c0-0.3,0-0.7,0.1-0.9C5.4,2.2,5.6,2,5.8,1.8c0.2-0.2,0.4-0.3,0.7-0.4C6.7,1.3,7,1.2,7.4,1.2c0.1,0,0.3,0,0.4,0c0.1,0,0.3,0,0.4,0.1
	l0,0.6c0,0.1-0.1,0.2-0.2,0.2c-0.1,0-0.2,0-0.4,0c-0.2,0-0.3,0-0.5,0.1C7,2.3,6.8,2.4,6.7,2.5C6.6,2.6,6.5,2.7,6.5,2.9
	C6.4,3,6.4,3.2,6.4,3.5V4h1.7v0.9H6.5V10H5.2z"/>
<path d="M13.8,17.8c0.6,0.2,1.3,0.4,2.1,0.4v-1.3c-0.5,0-0.9-0.1-1.2-0.2c-0.3-0.1-0.5-0.3-0.7-0.5l-1.1,1.1
	C13.1,17.5,13.4,17.7,13.8,17.8z"/>
<path d="M12.5,2.1c-0.3,0.5-0.5,1-0.5,1.7v3c0,0.5-0.1,0.8-0.3,1.1s-0.5,0.5-0.8,0.6c-0.4,0.1-0.8,0.2-1.3,0.2v1.3
	c0.5,0,1,0.1,1.3,0.2c0.4,0.1,0.6,0.3,0.8,0.6c0.2,0.3,0.3,0.7,0.3,1.1v1.2l0.9,0c0.3,0,0.5,0.1,0.7,0.2v-1.5c0-0.7-0.2-1.2-0.5-1.6
	c-0.3-0.4-0.9-0.7-1.6-0.8V9.4c0.7-0.1,1.2-0.4,1.6-0.8c0.3-0.4,0.5-1,0.5-1.6V4c0-0.4,0.1-0.8,0.3-1.1c0.2-0.3,0.4-0.5,0.8-0.6
	c0.3-0.1,0.8-0.2,1.2-0.2V0.7c-0.8,0-1.5,0.1-2,0.3C13.2,1.3,12.8,1.6,12.5,2.1z"/>
<path d="M23.1,8.6c-0.4-0.1-0.6-0.3-0.8-0.6C22.1,7.7,22,7.3,22,6.8v-3c0-0.7-0.2-1.3-0.5-1.7c-0.3-0.5-0.7-0.8-1.3-1
	c-0.6-0.2-1.3-0.3-2.1-0.4v1.3c0.5,0,0.9,0.1,1.2,0.2c0.3,0.1,0.6,0.3,0.8,0.6c0.2,0.3,0.3,0.6,0.3,1.1v3c0,0.7,0.2,1.2,0.5,1.6
	c0.3,0.4,0.9,0.7,1.6,0.8v0.1c-0.7,0.1-1.2,0.4-1.6,0.8c-0.3,0.4-0.5,1-0.5,1.6v3c0,0.4-0.1,0.8-0.3,1.1c-0.2,0.3-0.4,0.5-0.8,0.6
	c-0.3,0.1-0.7,0.2-1.2,0.2v1.3c0.8,0,1.5-0.1,2-0.4c0.6-0.2,1-0.6,1.4-1c0.3-0.5,0.5-1,0.5-1.7v-3c0-0.5,0.1-0.8,0.3-1.1
	c0.2-0.3,0.5-0.5,0.8-0.6c0.4-0.1,0.8-0.2,1.3-0.2V8.8C23.9,8.8,23.5,8.7,23.1,8.6z"/>
<path class="st0" d="M13.8,16c0,0,0.1,0.1,0.1,0.1l0.1-0.1c0.8-0.8,0.4-2.1-0.5-2.6v1.5C13.6,15.4,13.7,15.7,13.8,16z"/>
<path d="M12.9,14.8l-3.3,0c0,0-0.1,0-0.1,0.1l-0.2,0.7c0,0.1,0,0.2,0.1,0.2h1.3c0.1,0,0.1,0.1,0.1,0.2l-2,2.2h0l1,3.4
	c0,0.1,0,0.1-0.1,0.1h-1c-0.1,0-0.1,0-0.1-0.1L8,19.8c0-0.1-0.2-0.1-0.2,0L7.4,21c0,0,0,0,0,0.1l0.4,1.5c0,0,0.1,0.1,0.1,0.1h3.3
	c0.1,0,0.1-0.1,0.1-0.1l-1.3-4.3c0,0,0-0.1,0-0.1l3-3.2C13,14.9,13,14.8,12.9,14.8z"/>
<path class="st1" d="M9,13l-2,0c0,0-0.1,0-0.1,0.1l-0.3,0.7c0,0.1,0,0.2,0.1,0.2h0.8c0.1,0,0.1,0.1,0.1,0.2l-2.4,6.7
	c0,0.1-0.2,0.1-0.2,0L3.4,16c0-0.1,0-0.2,0.1-0.2h0.9c0,0,0.1,0,0.1,0.1l0.6,1.7c0,0.1,0.2,0.1,0.2,0l1-2.7c0-0.1,0-0.2-0.1-0.2H2.1
	C2,14.8,2,14.9,2,14.9l3.1,9c0,0.1,0.2,0.1,0.2,0l3.8-10.8C9.1,13.1,9.1,13,9,13z"/>
</svg>
